# xmcd
#
# Track frame offsets:
#	150
#	16267
#	33940
#	54142
#	71589
#	91166
#	109164
#	123849
#	140533
#	156505
#	170597
#
# Disc length: 2508 seconds
#
# Revision: 1
# Processed by: cddbd v1.5.1PL0 Copyright (c) Steve Scherf et al.
# Submitted via: audiograbber 1.83.01
#
DISCID=8909ca0b
DTITLE=Various Artist - CDX Vol. 345 Disc 2
DYEAR=2004
DGENRE=Country
TTITLE0=Wendy Manley - A Good Suntan
TTITLE1=Kim Cargill - Deep In The Heart Of Dixie
TTITLE2=Jimmy Snyder  - Haggard State Of Mind
TTITLE3=Rachael Warwick - Mistake
TTITLE4=Wendy Daniels - On The Right Track
TTITLE5=Wanda Kay - Play Me An Elvis Song
TTITLE6=Keith Bryant - Ridin With The Legend
TTITLE7=John Stone - Shame On Me
TTITLE8=Randy Thompson - Sound Of The Rain
TTITLE9=Sisters Wade - Troublemaker
TTITLE10=Old Crow Medicine Show - Wagon Wheel
EXTD=
EXTT0=
EXTT1=
EXTT2=
EXTT3=
EXTT4=
EXTT5=
EXTT6=
EXTT7=
EXTT8=
EXTT9=
EXTT10=
PLAYORDER=
